<svg xmlns="http://www.w3.org/2000/svg" width="320" height="60" fill="none" viewBox="0 0 320 60">
  <path fill="#fff" d="m38.58 38.404 9.21 16.859H30.7l-7.777-14.407h-7.368v14.407H0V4.193h28.449c11.768 0 19.24 6.532 19.24 18.278 0 7.558-3.48 12.972-9.11 15.933M15.555 17.466v10.112h11.052c3.274 0 5.32-1.941 5.32-5.107s-2.046-5.005-5.32-5.005zm81.663 41.571L50.656 46.474 63.141 0l23.28 6.282 23.281 6.281zM88.417 24.82 75.42 21.245l-3.48 12.972 12.997 3.575zm74.602 16.036c0 9.805-6.242 14.407-15.964 14.407H116.56V4.193h29.472c9.721 0 15.963 5.005 15.963 13.789 0 5.515-2.046 9.193-5.935 11.747 4.401 1.934 6.959 5.816 6.959 11.127M131.705 16.45v7.558h10.125c2.763 0 4.401-1.226 4.401-3.881 0-2.452-1.638-3.677-4.401-3.677zm0 26.556h11.359c2.661 0 4.201-1.43 4.201-3.883 0-2.654-1.535-3.88-4.201-3.88h-11.359zm38.989-38.813h15.552v35.949h22.309v15.12h-37.863zm95.068 25.536c0 5.252-1.56 10.387-4.484 14.754a26.6 26.6 0 0 1-11.94 9.78 26.66 26.66 0 0 1-15.373 1.512 26.62 26.62 0 0 1-13.623-7.268 26.521 26.521 0 0 1-5.768-28.94c2.014-4.853 5.424-9 9.8-11.919a26.64 26.64 0 0 1 14.782-4.475 26.565 26.565 0 0 1 18.827 7.76 26.5 26.5 0 0 1 5.767 8.621 26.4 26.4 0 0 1 2.012 10.17zm-15.554 0c0-6.334-5.015-11.339-11.052-11.339-6.038 0-11.053 5.005-11.053 11.339s5.015 11.337 11.053 11.337c6.037 0 11.052-5.01 11.052-11.343zm53.008-.818L320 55.263h-18.528l-9.205-15.02-9.517 15.02h-18.83l17.499-25.74-16.066-25.33h18.522l8.494 13.789 8.187-13.789h18.42z"/>
</svg>
